# xmcd
#
# Track frame offsets:
#	150
#	13000
#	31050
#	46520
#	63482
#	77655
#	87067
#	107067
#	122375
#	134310
#
# Disc length: 1990 seconds
#
# Revision: 1
# Processed by: cddbd v1.5.2PL0 Copyright (c) Steve Scherf et al.
# Submitted via: audiograbber 1.83.01
#
DISCID=6b07c40a
DTITLE=The Castaway Stones - Make Love To You
DYEAR=1900
DGENRE=
TTITLE0=Up All Day
TTITLE1=Lost And Found
TTITLE2=Night Time Is The City's Only Star
TTITLE3=Rose In The Devil's Garden
TTITLE4=The Revolution Creaks On A Bed
TTITLE5=Under London Skies
TTITLE6=Pinball, 1973
TTITLE7=Brazil
TTITLE8=Autumn II
TTITLE9=Everybody's Having A Good Time
EXTD=
EXTT0=
EXTT1=
EXTT2=
EXTT3=
EXTT4=
EXTT5=
EXTT6=
EXTT7=
EXTT8=
EXTT9=
PLAYORDER=
